/* XPM */
static char * bitcoin32_xpm[] = {
"32 32 247 2",
"  	c None",
". 	c #000000",
"+ 	c #1B0D00",
"@ 	c #221000",
"# 	c #200F00",
"$ 	c #241000",
"% 	c #251100",
"& 	c #241200",
"* 	c #0C0600",
"= 	c #251200",
"- 	c #271200",
"; 	c #050511",
"> 	c #000533",
", 	c #000949",
"' 	c #000C58",
") 	c #000D61",
"! 	c #000D5F",
"~ 	c #000B54",
"{ 	c #000843",
"] 	c #00042C",
"^ 	c #140904",
"/ 	c #261100",
"( 	c #1E0E00",
"_ 	c #1A0D00",
": 	c #000224",
"< 	c #000C59",
"[ 	c #000E64",
"} 	c #000E67",
"| 	c #040412",
"1 	c #2B1400",
"2 	c #0E0700",
"3 	c #2D1600",
"4 	c #09060A",
"5 	c #000C55",
"6 	c #000D60",
"7 	c #010A42",
"8 	c #000132",
"9 	c #000C56",
"0 	c #000E66",
"a 	c #000E65",
"b 	c #000841",
"c 	c #180B00",
"d 	c #321800",
"e 	c #000217",
"f 	c #00032D",
"g 	c #C1BD00",
"h 	c #5E5800",
"i 	c #000008",
"j 	c #00002D",
"k 	c #000B4E",
"l 	c #000C5A",
"m 	c #100807",
"n 	c #2F1600",
"o 	c #000218",
"p 	c #000016",
"q 	c #473F00",
"r 	c #524900",
"s 	c #FFFA00",
"t 	c #FFF000",
"u 	c #FFFF00",
"v 	c #C6BA00",
"w 	c #6D6A00",
"x 	c #04050A",
"y 	c #100805",
"z 	c #160B00",
"A 	c #1C0D00",
"B 	c #06040C",
"C 	c #000A4B",
"D 	c #3D3500",
"E 	c #7C6E00",
"F 	c #605800",
"G 	c #FFF300",
"H 	c #FFED00",
"I 	c #FCEF00",
"J 	c #00001A",
"K 	c #000D62",
"L 	c #1D0D00",
"M 	c #070300",
"N 	c #220F00",
"O 	c #00073F",
"P 	c #4A4100",
"Q 	c #7F7000",
"R 	c #726A00",
"S 	c #FFEF00",
"T 	c #FFEC00",
"U 	c #958F00",
"V 	c #00063D",
"W 	c #000639",
"X 	c #2A1300",
"Y 	c #261200",
"Z 	c #00032C",
"` 	c #000433",
" .	c #5B5000",
"..	c #837400",
"+.	c #7A7801",
"@.	c #FFF700",
"#.	c #2F2C00",
"$.	c #0D0708",
"%.	c #150A00",
"&.	c #271100",
"*.	c #000127",
"=.	c #6C5F00",
"-.	c #756800",
";.	c #9C9600",
">.	c #F8E800",
",.	c #00001D",
"'.	c #00073E",
").	c #231100",
"!.	c #00021D",
"~.	c #000018",
"{.	c #5D5101",
"].	c #C5BA00",
"^.	c #928B00",
"/.	c #241100",
"(.	c #00073B",
"_.	c #00000A",
":.	c #847500",
"<.	c #433A00",
"[.	c #F2E200",
"}.	c #3A3700",
"|.	c #010B50",
"1.	c #000E63",
"2.	c #00031D",
"3.	c #1F0F00",
"4.	c #000E6A",
"5.	c #151100",
"6.	c #302901",
"7.	c #EDE000",
"8.	c #5B5800",
"9.	c #010B4E",
"0.	c #000534",
"a.	c #000D5D",
"b.	c #262100",
"c.	c #827300",
"d.	c #1F1B00",
"e.	c #FBF200",
"f.	c #FFEE00",
"g.	c #F1E400",
"h.	c #4A4900",
"i.	c #000742",
"j.	c #231000",
"k.	c #000E69",
"l.	c #413900",
"m.	c #2C2601",
"n.	c #736500",
"o.	c #393100",
"p.	c #646201",
"q.	c #F5E700",
"r.	c #FEEB00",
"s.	c #FFF500",
"t.	c #4A4400",
"u.	c #000C57",
"v.	c #000940",
"w.	c #0B0900",
"x.	c #7E6F00",
"y.	c #776900",
"z.	c #786A00",
"A.	c #877700",
"B.	c #FFFD00",
"C.	c #DCCE00",
"D.	c #000021",
"E.	c #000A49",
"F.	c #200E00",
"G.	c #000428",
"H.	c #131000",
"I.	c #5C5100",
"J.	c #242000",
"K.	c #372F00",
"L.	c #474100",
"M.	c #000842",
"N.	c #000B53",
"O.	c #000226",
"P.	c #161300",
"Q.	c #807100",
"R.	c #383000",
"S.	c #D8CC00",
"T.	c #000022",
"U.	c #211000",
"V.	c #00063A",
"W.	c #000B50",
"X.	c #3B3300",
"Y.	c #796B00",
"Z.	c #463E00",
"`.	c #FFFE00",
" +	c #3F3B00",
".+	c #000D5A",
"++	c #00031B",
"@+	c #00031A",
"#+	c #3F3800",
"$+	c #554F01",
"%+	c #FFF600",
"&+	c #D3C801",
"*+	c #000023",
"=+	c #000840",
"-+	c #494000",
";+	c #7B6C00",
">+	c #5F5801",
",+	c #3F3A00",
"'+	c #000D5B",
")+	c #00073C",
"!+	c #000227",
"~+	c #6A6401",
"{+	c #D6CA00",
"]+	c #000024",
"^+	c #0F0806",
"/+	c #130900",
"(+	c #000D5E",
"_+	c #807900",
":+	c #393500",
"<+	c #000D5C",
"[+	c #2A1400",
"}+	c #1A0C00",
"|+	c #0A0609",
"1+	c #00022E",
"2+	c #655900",
"3+	c #817200",
"4+	c #403C01",
"5+	c #040200",
"6+	c #000113",
"7+	c #746600",
"8+	c #4E4600",
"9+	c #000012",
"0+	c #130902",
"a+	c #311700",
"b+	c #000212",
"c+	c #00001B",
"d+	c #332D00",
"e+	c #000123",
"f+	c #120903",
"g+	c #291300",
"h+	c #0F0807",
"i+	c #000B52",
"j+	c #00083F",
"k+	c #000D63",
"l+	c #00021F",
"m+	c #000942",
"n+	c #0A060B",
"o+	c #2C1500",
"p+	c #080400",
"q+	c #0D080B",
"r+	c #00042D",
"s+	c #000A4C",
"t+	c #000326",
"u+	c #1D0E01",
"v+	c #120800",
"w+	c #210F00",
"x+	c #050200",
"                              . .                               ",
"                    . + @ # $ % % @ # & *                       ",
"                . = - ; > , ' ) ! ~ { ] ^ / ( .                 ",
"              _ % : < [ ! ! ! ! ! ! ! ! } , | 1 2               ",
"          . 3 4 5 6 ! ! ! ) 7 8 9 0 ! ! ! ! a b c c             ",
"        . d e [ ! ! ! ! a f . g h i j k 0 ! ! ! l m _           ",
"        n o 0 ! ! ! ! ) p q r s t u v w x a ! ! ! ! y z         ",
"      A B a ! ! ! ! ! C D E F G H H H I J K ! ! ! ! ' L M       ",
"    . N < ! ! ! ! ! ! O P Q R S H H T U V ! ! ! ! ! ! W X       ",
"    Y Z ! ! ! ! ! ! ! `  ...+.T H H @.#.[ ! ! ! ! ! ! } $.%.    ",
"  . &.6 ! ! ! ! ! ! 6 *.=.-.;.H H H >.,.) ! ! ! ! ! ! ! '.@     ",
"  ).!.) ! ! ! ! ! ! K ~.Q {.].H H T ^.O ! ! ! ! ! ! ! ! 0 /..   ",
"  # (.! ! ! ! ! ! ! [ _.:.<.[.H H G }.|.1.! ! ! ! ! ! ! ) 2.3.  ",
"  N ~ ! ! ! ! ! ! ! 4.5.E 6.u H H T 7.8.p 9.K ! ! ! ! ! ! 0.).  ",
". / } ! ! ! ! ! ! ! a.b.c.d.e.f.H H H S g.h.(.! ! ! ! ! ! i.#   ",
". j.k.! ! ! ! ! ! ! k l.m.n.o.p.q.r.H H s.t.u.! ! ! ! ! ! , #   ",
". j.k.! ! ! ! ! ! ! v.w.x.y.z.A.. B.H H C.D.6 ! ! ! ! ! ! E.F.  ",
". / 0 ! ! ! ! ! ! ! 6 G.H.I.x.J.K.u H s.L.< ! ! ! ! ! ! ! M.#   ",
"  @ N.! ! ! ! ! ! ! ! ! ! O.P.Q.R.u H S.T.) ! ! ! ! ! ! ! > ).  ",
"  U.V.! ! ! ! ! ! ! ! ! ! W.X.Y.Z.`.@. +.+! ! ! ! ! ! ! ) ++#   ",
"  U.@+K ! ! ! ! ! ! ! ! ! E.#+Y.$+%+&+*+6 ! ! ! ! ! ! ! a % .   ",
"  . &.a.! ! ! ! ! ! ! ! ! =+-+;+>+B.,+'+! ! ! ! ! ! ! ! )+j.    ",
"    Y !+6 ! ! ! ! ! ! ! ! W r E ~+{+]+6 ! ! ! ! ! ! ! 0 ^+/+    ",
"    . % 9 ! ! ! ! ! ! ! (+`  .Q._+:+<+! ! ! ! ! ! ! ! 0.[+      ",
"      }+|+1.! ! ! ! ! ! ! 1+2+3+4+]+6 ! ! ! ! ! ! (+~ # 5+      ",
"        [+6+a ! ! ! ! ! 6 ]+7+8+9+! ! ! ! ! ! ! (+<+0+%.        ",
"        . a+b+1.! ! ! ! ) c+d+e+a ! ! ! ! ! ! ! u.f+c           ",
"            g+h+W.) ! ! ! i+j+k+! ! ! ! ! ! 0 V.( %.            ",
"              c X l+i+0 ! ! ! ! ! ! ! 6 } m+n+o+p+              ",
"                . /.Y q+r+M.W.' u.s+)+t+u+j.}+                  ",
"                    . v+= # w+/ % # U.).x+                      ",
"                              . .                               "};
