/* XPM */
static char * bitcoin64_xpm[] = {
"64 64 417 2",
"  	c None",
". 	c #000000",
"+ 	c #050300",
"@ 	c #1C0D00",
"# 	c #341900",
"$ 	c #401E00",
"% 	c #411F00",
"& 	c #431F00",
"* 	c #432000",
"= 	c #401F00",
"- 	c #3A1C00",
"; 	c #271300",
"> 	c #0E0700",
", 	c #1E0E00",
"' 	c #422000",
") 	c #452000",
"! 	c #361900",
"~ 	c #1F0F00",
"{ 	c #050200",
"] 	c #140900",
"^ 	c #2D1600",
"/ 	c #452100",
"( 	c #2F1600",
"_ 	c #020100",
": 	c #3F1E00",
"< 	c #472200",
"[ 	c #211000",
"} 	c #000109",
"| 	c #000424",
"1 	c #000736",
"2 	c #000942",
"3 	c #000A4C",
"4 	c #000C55",
"5 	c #000C58",
"6 	c #000C56",
"7 	c #000B50",
"8 	c #000946",
"9 	c #00083A",
"0 	c #00062C",
"a 	c #000316",
"b 	c #0D0600",
"c 	c #3E1D00",
"d 	c #1D0E00",
"e 	c #090400",
"f 	c #442000",
"g 	c #010100",
"h 	c #000318",
"i 	c #00083C",
"j 	c #000D5D",
"k 	c #000E66",
"l 	c #000D60",
"m 	c #000D5F",
"n 	c #000D62",
"o 	c #000A4A",
"p 	c #000528",
"q 	c #000001",
"r 	c #231000",
"s 	c #4C2400",
"t 	c #221000",
"u 	c #3B1C00",
"v 	c #000630",
"w 	c #000E63",
"x 	c #000E65",
"y 	c #000943",
"z 	c #000212",
"A 	c #200F00",
"B 	c #4D2500",
"C 	c #100700",
"D 	c #170B00",
"E 	c #4E2500",
"F 	c #060300",
"G 	c #000733",
"H 	c #000E64",
"I 	c #000A4B",
"J 	c #00020E",
"K 	c #361A00",
"L 	c #3D1D00",
"M 	c #301700",
"N 	c #00041C",
"O 	c #000C5B",
"P 	c #502600",
"Q 	c #120900",
"R 	c #000941",
"S 	c #000D63",
"T 	c #000A48",
"U 	c #000732",
"V 	c #000B55",
"W 	c #000C5C",
"X 	c #00020F",
"Y 	c #080400",
"Z 	c #000106",
"` 	c #000D5E",
" .	c #000735",
"..	c #8D8800",
"+.	c #282400",
"@.	c #000108",
"#.	c #000B4E",
"$.	c #000524",
"%.	c #462100",
"&.	c #130900",
"*.	c #030200",
"=.	c #00020C",
"-.	c #00041F",
";.	c #272301",
">.	c #151301",
",.	c #FFF900",
"'.	c #FFFB00",
").	c #F3E300",
"!.	c #948D00",
"~.	c #3F3B00",
"{.	c #000102",
"].	c #000526",
"^.	c #000A46",
"/.	c #000734",
"(.	c #00020D",
"_.	c #3E3700",
":.	c #776900",
"<.	c #322E00",
"[.	c #FFF600",
"}.	c #FFED00",
"|.	c #FFF100",
"1.	c #A89E00",
"2.	c #534D00",
"3.	c #000839",
"4.	c #0A0500",
"5.	c #000E61",
"6.	c #000C59",
"7.	c #000003",
"8.	c #584E00",
"9.	c #7A6C00",
"0.	c #5F5401",
"a.	c #5F5900",
"b.	c #FFF000",
"c.	c #BAB000",
"d.	c #1E1C00",
"e.	c #00020B",
"f.	c #00062F",
"g.	c #261200",
"h.	c #000D5C",
"i.	c #6A5D00",
"j.	c #786A00",
"k.	c #4E4400",
"l.	c #7F7800",
"m.	c #FFFA00",
"n.	c #000527",
"o.	c #00041D",
"p.	c #492300",
"q.	c #482200",
"r.	c #00062D",
"s.	c #7D6F00",
"t.	c #393201",
"u.	c #A29900",
"v.	c #FFEC00",
"w.	c #A7A101",
"x.	c #010000",
"y.	c #000D61",
"z.	c #000520",
"A.	c #0A0800",
"B.	c #807000",
"C.	c #796B00",
"D.	c #282300",
"E.	c #C4B900",
"F.	c #FFF200",
"G.	c #4C4800",
"H.	c #000E67",
"I.	c #000B54",
"J.	c #150B00",
"K.	c #2E1500",
"L.	c #000104",
"M.	c #1A1701",
"N.	c #0E0C01",
"O.	c #EEDF00",
"P.	c #FFF700",
"Q.	c #030100",
"R.	c #4A2300",
"S.	c #000840",
"T.	c #000105",
"U.	c #302A01",
"V.	c #807100",
"W.	c #010001",
"X.	c #FFF300",
"Y.	c #A39C00",
"Z.	c #000B4D",
"`.	c #381B00",
" +	c #281300",
".+	c #3C3500",
"++	c #090701",
"@+	c #FFFD00",
"#+	c #FFF500",
"$+	c #433F00",
"%+	c #000002",
"&+	c #000837",
"*+	c #00093F",
"=+	c #4E4401",
"-+	c #766900",
";+	c #272401",
">+	c #00062B",
",+	c #000D65",
"'+	c #3C1D00",
")+	c #040200",
"!+	c #000A49",
"~+	c #5E5300",
"{+	c #625701",
"]+	c #545000",
"^+	c #A09900",
"/+	c #000B51",
"(+	c #090500",
"_+	c #00062A",
":+	c #00083B",
"<+	c #716400",
"[+	c #524801",
"}+	c #736D00",
"|+	c #FFEE00",
"1+	c #403C00",
"2+	c #000B4F",
"3+	c #000730",
"4+	c #7B6D01",
"5+	c #3F3701",
"6+	c #959100",
"7+	c #00062E",
"8+	c #351A00",
"9+	c #070300",
"0+	c #000E68",
"a+	c #000523",
"b+	c #020200",
"c+	c #837400",
"d+	c #2E2801",
"e+	c #BAB100",
"f+	c #9C9300",
"g+	c #000C57",
"h+	c #000731",
"i+	c #2E1600",
"j+	c #000314",
"k+	c #161301",
"l+	c #7E7000",
"m+	c #7B6D00",
"n+	c #151100",
"o+	c #E2D500",
"p+	c #978F00",
"q+	c #000319",
"r+	c #421F00",
"s+	c #391B00",
"t+	c #000737",
"u+	c #2B2501",
"v+	c #796C00",
"w+	c #7E6F00",
"x+	c #020201",
"y+	c #FFEF00",
"z+	c #847E00",
"A+	c #000E62",
"B+	c #393200",
"C+	c #817200",
"D+	c #FFFF00",
"E+	c #7F7B00",
"F+	c #000317",
"G+	c #000A4E",
"H+	c #000D5B",
"I+	c #4A4101",
"J+	c #7C6D00",
"K+	c #232000",
"L+	c #837E00",
"M+	c #000629",
"N+	c #321800",
"O+	c #5A5001",
"P+	c #272300",
"Q+	c #908A00",
"R+	c #2D2A01",
"S+	c #000E6A",
"T+	c #231100",
"U+	c #3E1E00",
"V+	c #00083D",
"W+	c #6B5F01",
"X+	c #181601",
"Y+	c #302A00",
"Z+	c #342E00",
"`+	c #8F8801",
" @	c #EADC00",
".@	c #190B00",
"+@	c #210F00",
"@@	c #7E6F01",
"#@	c #100E00",
"$@	c #7D6E00",
"%@	c #918901",
"&@	c #554F00",
"*@	c #131100",
"=@	c #4A4201",
"-@	c #796A00",
";@	c #2A2500",
">@	c #0B0A00",
",@	c #E6D900",
"'@	c #00072F",
")@	c #110800",
"!@	c #291300",
"~@	c #332C00",
"{@	c #827300",
"]@	c #040300",
"^@	c #010101",
"/@	c #F9E800",
"(@	c #544D00",
"_@	c #160A00",
":@	c #251100",
"<@	c #0F0D00",
"[@	c #564C00",
"}@	c #635800",
"|@	c #756700",
"1@	c #E8D900",
"2@	c #1B0D00",
"3@	c #0E0C00",
"4@	c #574D00",
"5@	c #7F7100",
"6@	c #5A4F00",
"7@	c #030201",
"8@	c #524D00",
"9@	c #311700",
"0@	c #0B0500",
"a@	c #000A47",
"b@	c #141201",
"c@	c #070601",
"d@	c #766800",
"e@	c #080700",
"f@	c #E5D700",
"g@	c #000007",
"h@	c #685C00",
"i@	c #7A6B00",
"j@	c #1C1A01",
"k@	c #4A4500",
"l@	c #251200",
"m@	c #736500",
"n@	c #2B2801",
"o@	c #FFF800",
"p@	c #DCD100",
"q@	c #433E00",
"r@	c #FFF400",
"s@	c #444000",
"t@	c #0F0700",
"u@	c #472100",
"v@	c #7C6E00",
"w@	c #615601",
"x@	c #615B00",
"y@	c #DACE00",
"z@	c #000631",
"A@	c #00010A",
"B@	c #371A00",
"C@	c #7F7000",
"D@	c #544A01",
"E@	c #6D6800",
"F@	c #454101",
"G@	c #000B53",
"H@	c #000421",
"I@	c #090801",
"J@	c #4E4501",
"K@	c #837B00",
"L@	c #DBCD00",
"M@	c #331800",
"N@	c #000738",
"O@	c #403901",
"P@	c #958C00",
"Q@	c #454000",
"R@	c #000004",
"S@	c #000210",
"T@	c #1C1901",
"U@	c #363000",
"V@	c #D9CB00",
"W@	c #2C2701",
"X@	c #BEB400",
"Y@	c #381A00",
"Z@	c #312B00",
"`@	c #1D1900",
" #	c #D1C500",
".#	c #D0C600",
"+#	c #000522",
"@#	c #00041B",
"##	c #3B3501",
"$#	c #131001",
"%#	c #F7EC00",
"&#	c #373300",
"*#	c #000D64",
"=#	c #4D2400",
"-#	c #443C00",
";#	c #020001",
">#	c #CCC201",
",#	c #150A00",
"'#	c #4D4401",
")#	c #776A00",
"!#	c #2F2900",
"~#	c #050500",
"{#	c #070400",
"]#	c #351900",
"^#	c #180B00",
"/#	c #584E01",
"(#	c #655A00",
"_#	c #050400",
":#	c #000521",
"<#	c #512700",
"[#	c #0C0600",
"}#	c #000107",
"|#	c #5E5301",
"1#	c #4E4601",
"2#	c #4F2500",
"3#	c #746601",
"4#	c #322D01",
"5#	c #000211",
"6#	c #000525",
"7#	c #4B2400",
"8#	c #00083F",
"9#	c #131101",
"0#	c #000423",
"a#	c #522700",
"b#	c #2B1400",
"c#	c #000B52",
"d#	c #00010B",
"e#	c #4B2300",
"f#	c #000313",
"g#	c #00041E",
"h#	c #0B0600",
"i#	c #331900",
"j#	c #3C1C00",
"                                                                                                                                ",
"                                                    . . . . . . . . . . . .                                                     ",
"                                            . . . + @ # $ % & * * % = - ; > . . .                                               ",
"                                      . . . , ' ) ! ~ { . . . . . . . . ] ^ ' / ( _ . .                                         ",
"                                  . . + : < [ . . } | 1 2 3 4 5 6 7 8 9 0 a . . b c < d . .                                     ",
"                                . e f - g . h i j k l m m m m m m m m m m n k o p q . r s t . .                                 ",
"                            . . : u . . v j w m m m m m m m m m m m m m m m m m l x y z . A B C .                               ",
"                          . D E F . G w m m m m m m m m m m m m m m m m m m m m m m m H I J . K L . .                           ",
"                      . . u M . N m m m m m m m m m m m m j O H m m m m m m m m m m m m m x i . b P { .                         ",
"                    . . s Q . R S m m m m m m m m m m l T . . J U V x m m m m m m m m m m m m W X . E b .                       ",
"                  . . P Y Z 5 ` m m m m m m m m m m S  .. . ..+.. . @.0 #.x l m m m m m m m m m H $.. %.&..                     ",
"                . . P *.=.l m m m m m m m m m m m H -.. ;.>.,.'.).!.~.. . {.].^.x m m m m m m m m S /.. * Q .                   ",
"                . B + J S m m m m m m m m m m m ` (.. _.:.<.[.}.}.}.[.|.1.2.. . . 2 m m m m m m m m n 3.. < 4..                 ",
"              . % > @.5.m m m m m m m m m m m 6.7.. 8.9.0.a.b.}.}.}.}.}.}.|.'.c.d.e.x m m m m m m m m n f.. P . .               ",
"            . ~ g.. h.m m m m m m m m m m m m 3.. i.j.j.k.l.}.}.}.}.}.}.}.}.}.m.. n.l m m m m m m m m m H o._ p..               ",
"          . _ q.. o m m m m m m m m m m m m m r.q s.j.j.t.u.}.}.}.}.}.}.}.}.v.w.. I m m m m m m m m m m m S } d ; .             ",
"          . < x.n.y.m m m m m m m m m m m m y.z.A.B.j.C.D.E.}.}.}.}.}.}.}.}.F.G.q H.m m m m m m m m m m m m I.. < _ .           ",
"        . J.K.L.S m m m m m m m m m m m m m S z M.s.j.s.N.O.}.}.}.}.}.}.}.}.P.. p m m m m m m m m m m m m m l 0 Q.f .           ",
"        . R.. S.m m m m m m m m m m m m m m H T.U.C.j.V.W.X.}.}.}.}.}.}.}.v.Y.. Z.m m m m m m m m m m m m m m S q `.e .         ",
"      . D  +e.x m m m m m m m m m m m m m m x . .+j.j.s.++@+}.}.}.}.}.}.}.#+$+%+H.m m m m m m m m m m m m m m m &+. f .         ",
"      . q.. *+m m m m m m m m m m m m m m m 5 . =+j.j.-+;+,.}.}.}.}.}.}.}.|.. >+m m m m m m m m m m m m m m m m ,+. '+_         ",
"    . )+u . x m m m m m m m m m m m m m m m !+. ~+j.j.{+]+|.}.}.}.}.}.}.v.^+. /+m m m m m m m m m m m m m m m m m r.(+! .       ",
"    . K Y _+m m m m m m m m m m m m m m m m :+. <+j.j.[+}+|+}.}.}.}.}.}.[.1+Z x m m m m m m m m m m m m m m m m m 5 . %..       ",
"    . / . 2+m m m m m m m m m m m m m m m m 3+. 4+j.j.5+6+v.}.}.}.}.}.}.|+. 7+m m m m m m m m m m m m m m m m m m H X 8+9+.     ",
"    x.- . 0+m m m m m m m m m m m m m m m l a+b+c+j.C.d+e+v.}.}.}.}.}.}.f+. g+m m m m m m m m m m m m m m m m m m m h+b i+.     ",
"  . , , z.y.m m m m m m m m m m m m m m m n j+k+l+j.m+n+o+}.}.}.}.}.}.}.p+. q+/+w m m m m m m m m m m m m m m m m m I . r+.     ",
"  . s+. t+m m m m m m m m m m m m m m m m k T.u+v+j.w+x+y+}.}.}.}.}.}.}.[.z+. . h 7 S m m m m m m m m m m m m m m m A+. r+.     ",
"  . % . !+m m m m m m m m m m m m m m m m H.. B+j.j.C+q D+}.}.}.}.}.}.}.}.}.[.E+. . F+G+n m m m m m m m m m m m m m x } % .     ",
"  . f . H+m m m m m m m m m m m m m m m m 6.. I+:.j.J+K+'.}.}.}.}.}.}.}.}.}.}.}.#+L+. . M+y.m m m m m m m m m m m m n q+N+e .   ",
"  . r+. H.m m m m m m m m m m m m m m m m o . O+j.l+P+q Q+,.v.}.}.}.}.}.}.}.}.}.}.|+'.R+. S+m m m m m m m m m m m m l ].T+D .   ",
"  . U+. k m m m m m m m m m m m m m m m m V+. W+w+X+Y+m+Z+q `+m.}.}.}.}.}.}.}.}.}.}. @. _+m m m m m m m m m m m m m l >+.@+@.   ",
"  . : %+x m m m m m m m m m m m m m m m m h+. @@#@5+$@j.C.C.Z+q %@[.v.}.}.}.}.}.}.X.&@. m m m m m m m m m m m m m m m f.Q  +.   ",
"  . U+%+k m m m m m m m m m m m m m m m l $.q *@=@J+j.j.j.j.-@j.;@>@[.}.}.}.}.}.}.,@. 0 m m m m m m m m m m m m m m m '@)@!@.   ",
"  . $ . k m m m m m m m m m m m m m m m y.N . ~@{@j.j.j.j.j.j.W+]@^@/@}.}.}.}.}.X.(@. m m m m m m m m m m m m m m m l >+_@:@.   ",
"  . * . k m m m m m m m m m m m m m m m m /+T.. <@[@V.j.j.j.}@. |@. [.}.}.}.}.}.1@. r.l m m m m m m m m m m m m m m l ].A 2@.   ",
"  . f . 6.m m m m m m m m m m m m m m m m m x :+T.. 3@4@5@6@^@<+C+7@,.}.}.}.}.F.8@. l m m m m m m m m m m m m m m m S F+9@0@.   ",
"  . % . a@m m m m m m m m m m m m m m m m m m m x i Z . b@c@d@j.$@e@m.}.}.}.}.f@. 7+l m m m m m m m m m m m m m m m x g@$ .     ",
"  . K {  .m m m m m m m m m m m m m m m m m m m m m x f.. h@j.j.i@j@'.}.}.}.#+k@. y.m m m m m m m m m m m m m m m m y.. * .     ",
"  . D l@N y.m m m m m m m m m m m m m m m m m m m m m V+. m@j.j.d@n@o@}.}.}.p@. f.m m m m m m m m m m m m m m m m m T . * .     ",
"    . : . H.m m m m m m m m m m m m m m m m m m m m m  .. j.j.j.i.q@r@}.}.P.s@. A+m m m m m m m m m m m m m m m m m 0 t@^ .     ",
"    . u@. o m m m m m m m m m m m m m m m m m m m m m f.q v@j.j.w@x@y+}.}.y@. z@m m m m m m m m m m m m m m m m m x A@B@F       ",
"    . ^ C ].l m m m m m m m m m m m m m m m m m m m l _+_ C@j.j.D@E@|+}.[.F@. n m m m m m m m m m m m m m m m m m G@. < .       ",
"      . $ . H m m m m m m m m m m m m m m m m m m m y.H@I@C+j.j.J@K@}.}.L@. U m m m m m m m m m m m m m m m m m m p b M@.       ",
"      . ) . N@m m m m m m m m m m m m m m m m m m m n F+*@C@j.j.O@P@}.r@Q@. n m m m m m m m m m m m m m m m m m S . : .         ",
"      . > 9@R@x m m m m m m m m m m m m m m m m m m S S@T@$@j.j.U@w.v.V@. G m m m m m m m m m m m m m m m m m m 3+. r+.         ",
"        . q.. N@m m m m m m m m m m m m m m m m m m H } W@i@j.C.U.X@P.~.. w m m m m m m m m m m m m m m m m m l . U+{ .         ",
"        . b Y@. m m m m m m m m m m m m m m m m m m k q Z@C.j.m+`@ #.#. /.m m m m m m m m m m m m m m m m m n +#F = .           ",
"          . % F @#H m m m m m m m m m m m m m m m m H.. ##j.j.v@$#%#&#. *#m m m m m m m m m m m m m m m m m I . =#. .           ",
"            . E . *+m m m m m m m m m m m m m m m m y.. -#j.j.l+;#>#.  .m m m m m m m m m m m m m m m m m l L.; , .             ",
"            . ,## . 4 m m m m m m m m m m m m m m m 5 . '#)#j.9.!#~#q *#m m m m m m m m m m m m m m m m x z {#f .               ",
"              . ]#^#7.W m m m m m m m m m m m m m m 2+. /#j.j.(#_#. 3 m m m m m m m m m m m m m m m m H :#. <#. .               ",
"                . / [#}#` m m m m m m m m m m m m m a@. |#v@1#. }#5 m m m m m m m m m m m m m m m m H M+. 2#)+.                 ",
"                  . s 4.Z O ` m m m m m m m m m m m S.. 3#4#. 5#l m m m m m m m m m m m m m m m m x 6#. s 4..                   ",
"                  . . 7#t@q /+l m m m m m m m m m m 8#. 9#. 0#x m m m m m m m m m m m m m m m m n h . E 0@.                     ",
"                    . . ' t . 1 H m m m m m m m m m S F+. 3.S m m m m m m m m m m m m m m m l I.@.+ a#F .                       ",
"                        . b#r+. 5#6 l m m m m m m m m S H l m m m m m m m m m m m m m m m *#7+. , 7#. .                         ",
"                          . 0@<#] . ].` l m m m m m m m m m m m m m m m m m m m m m m k V+R@g < b#. .                           ",
"                            . . M@< { . $.c#x m m m m m m m m m m m m m m m m m y.l &+L.. 9@R.)+.                               ",
"                                . x.U+r+[#. d#G /+H *#l m m m m m m m m y.x j V+o.. . 9@e#&.. .                                 ",
"                                    . . M@q.N+F . . f#p  .*+a@!+T y 9 0 g#}#. . A / % > . .                                     ",
"                                        . . [#]#/ f 9@D e . . . . . )+)@; : f c d . . .                                         ",
"                                            . . . . h#t i#j#* ) * $ Y@ +&.. . . .                                               ",
"                                                    . . . . . . . . . . .                                                       ",
"                                                                                                                                "};
