/* XPM */
static char * bitcoin16_xpm[] = {
"16 16 121 2",
"  	c None",
". 	c #1F0E00",
"+ 	c #1B0B00",
"@ 	c #231000",
"# 	c #150902",
"$ 	c #0C0D34",
"% 	c #000953",
"& 	c #000D67",
"* 	c #000C62",
"= 	c #00084F",
"- 	c #110D2C",
"; 	c #180B00",
"> 	c #160B00",
", 	c #0E0B1C",
"' 	c #000D64",
") 	c #000D5E",
"! 	c #000A5C",
"~ 	c #303017",
"{ 	c #070C31",
"] 	c #000052",
"^ 	c #000E64",
"/ 	c #000C61",
"( 	c #120B12",
"_ 	c #0E0A1D",
": 	c #000E66",
"< 	c #000D5F",
"[ 	c #000C60",
"} 	c #443B00",
"| 	c #AFA700",
"1 	c #FFFF00",
"2 	c #E2D500",
"3 	c #000038",
"4 	c #000D65",
"5 	c #130B11",
"6 	c #140905",
"7 	c #00054F",
"8 	c #706200",
"9 	c #BAAF00",
"0 	c #FFED00",
"a 	c #B5AC00",
"b 	c #00075E",
"c 	c #000B5F",
"d 	c #190B00",
"e 	c #0A0B39",
"f 	c #000042",
"g 	c #736400",
"h 	c #DCCF00",
"i 	c #FFEF00",
"j 	c #605C14",
"k 	c #000E62",
"l 	c #150F28",
"m 	c #000B58",
"n 	c #000436",
"o 	c #584C00",
"p 	c #FFFC00",
"q 	c #FFF500",
"r 	c #555313",
"s 	c #00004D",
"t 	c #000E61",
"u 	c #000747",
"v 	c #251200",
"w 	c #1A0B00",
"x 	c #000D6B",
"y 	c #000D60",
"z 	c #1B1D2A",
"A 	c #4A4000",
"B 	c #A29A00",
"C 	c #FFF700",
"D 	c #FFF200",
"E 	c #B3AA00",
"F 	c #000757",
"G 	c #000A57",
"H 	c #1B0C00",
"I 	c #000D6A",
"J 	c #000330",
"K 	c #635600",
"L 	c #716400",
"M 	c #828200",
"N 	c #FFF600",
"O 	c #403E1C",
"P 	c #000B57",
"Q 	c #1C0D00",
"R 	c #000A58",
"S 	c #000D61",
"T 	c #000555",
"U 	c #594E00",
"V 	c #9B9800",
"W 	c #D1C400",
"X 	c #000054",
"Y 	c #000746",
"Z 	c #261200",
"` 	c #0A0C37",
" .	c #000856",
"..	c #655800",
"+.	c #B4AF01",
"@.	c #3B3A1D",
"#.	c #150F27",
"$.	c #150903",
"%.	c #00044D",
"&.	c #898100",
"*.	c #000055",
"=.	c #000B5D",
"-.	c #0E0A1A",
";.	c #000147",
">.	c #7B6D00",
",.	c #070923",
"'.	c #150C0F",
").	c #190C00",
"!.	c #0F0A19",
"~.	c #000D63",
"{.	c #00084C",
"].	c #090D2E",
"^.	c #000E65",
"/.	c #140C10",
"(.	c #170A01",
"_.	c #0E0E31",
":.	c #00094F",
"<.	c #000C5E",
"[.	c #130E29",
"}.	c #1A0C00",
"|.	c #241100",
"            . + + @             ",
"        # $ % & * = - ;         ",
"    > , ' ) ! ~ { ] ^ / (       ",
"    _ : < [ } | 1 2 3 < 4 5     ",
"  6 4 < < 7 8 9 0 a b < < c d   ",
"  e < < < f g h i j k < < < l   ",
"+ m < < ) n o p q r s t < < u v ",
"w x < < y z A B C D E F < < G H ",
"w I < < y J K L M N O k < < P + ",
"Q R < < < S T U V W X < < < Y Z ",
"  ` < < < <  ...+.@.t < < < #.  ",
"  $.' < < < %.8 &.*.< < < =.d   ",
"    -.: < < ;.>.,.t < < ' '.    ",
"    ).!.~.< {.].^.< < c /.      ",
"        (._.:.[ <.{.[.}.        ",
"            @ + + |.            "};
